<svg width="25" height="24" fill="none" xmlns="http://www.w3.org/2000/svg">
  <path fill-rule="evenodd" clip-rule="evenodd" d="M20.335 4.696a1.63 1.63 0 0 0-1.585-.784c-.13.016-.379.106-.892.47-.5.356-1.132.881-2.028 1.628l-1.013.844v7.367l1.2.846c.875.616 1.488 1.047 1.97 1.334.492.292.73.36.86.368.6.035 1.182-.272 1.505-.823.075-.128.157-.38.2-.965.043-.574.044-1.34.044-2.429V8.381c0-1.186 0-2.024-.047-2.65-.047-.64-.136-.908-.214-1.035m-7.318 9.091V7.332h-5.69c-.608 0-1.017 0-1.335.023-.309.022-.463.06-.567.105a1.7 1.7 0 0 0-.9.93c-.047.116-.086.283-.107.605-.022.33-.022.754-.022 1.378v1.391c0 .294 0 .384.006.451.074.852.724 1.494 1.504 1.566.061.005.144.006.432.006zm.574-8.255 1.117-.93c.86-.716 1.545-1.287 2.107-1.686.555-.395 1.115-.718 1.718-.791a3.43 3.43 0 0 1 3.336 1.63c.316.515.424 1.153.475 1.844.052.7.052 1.605.052 2.743v4.248c0 1.042 0 1.876-.049 2.525-.048.647-.15 1.244-.442 1.742a3.44 3.44 0 0 1-3.164 1.708c-.58-.034-1.127-.292-1.674-.617-.55-.327-1.22-.799-2.054-1.387l-1.382-.974h-.235v3.033c0 1.788-1.415 3.28-3.214 3.28a3.1 3.1 0 0 1-1.737-.528c-1.125-.764-1.958-1.468-2.444-2.557-.39-.872-.521-1.917-.554-3.282-1.54-.276-2.701-1.58-2.838-3.163-.013-.155-.013-.33-.013-.565v-1.462c0-.587 0-1.071.026-1.467.027-.411.086-.791.233-1.158A3.5 3.5 0 0 1 4.72 5.804c.365-.155.743-.216 1.146-.245.388-.027.861-.027 1.43-.027zM7.249 15.587c.036 1.235.156 1.958.395 2.494.273.61.746 1.078 1.812 1.802.208.14.46.217.726.217.757 0 1.414-.638 1.414-1.48v-3.033z" fill="currentColor"/>
</svg>
