<svg width="24" height="24" fill="none" xmlns="http://www.w3.org/2000/svg">
  <path fill-rule="evenodd" clip-rule="evenodd" d="M12 15.45a3.45 3.45 0 1 0 0-6.9 3.45 3.45 0 0 0 0 6.9m0 1.8a5.25 5.25 0 1 0 0-10.5 5.25 5.25 0 0 0 0 10.5" fill="currentColor"/>
  <circle cx="18.5" cy="5.5" r="1" fill="currentColor"/>
  <circle cx="5.5" cy="5.5" r="1" fill="currentColor"/>
  <circle cx="20.5" cy="12" r="1" fill="currentColor"/>
  <circle cx="3.5" cy="12" r="1" fill="currentColor"/>
  <circle cx="18.5" cy="18.5" r="1" fill="currentColor"/>
  <path d="M13 20.5a1 1 0 1 1-2 0 1 1 0 0 1 2 0" fill="currentColor"/>
  <circle cx="5.5" cy="18.5" r="1" fill="currentColor"/>
  <path d="M13 3.5a1 1 0 1 1-2 0 1 1 0 0 1 2 0" fill="currentColor"/>
</svg>
